<svg xmlns="http://www.w3.org/2000/svg" width="17.147" height="18.921" viewBox="0 0 17.147 18.921">
  <g id="_3D_Dist" data-name="3D Dist" transform="translate(-6)">
    <path id="Path_16123" data-name="Path 16123" d="M14.278,38.62l-3.959,2.031c.13.055,1.05.566,1.022.7a.3.3,0,0,1-.29.239.293.293,0,0,1-.08-.011l-1.5-.558a.3.3,0,0,1-.209-.35l.071-1.426a.3.3,0,0,1,.346-.233c.16.031.33.985.3,1.145l4.016-2.06L6.023,33.59a.891.891,0,0,0-.023.2v8.6a.894.894,0,0,0,.454.779l7.687,4.319a.837.837,0,0,0,.137.06Z" transform="translate(0 -28.625)" fill="#0d6efd"/>
    <path id="Path_16124" data-name="Path 16124" d="M24.76,4.461,16.525,9.123,8.29,4.461a.927.927,0,0,1,.115-.079L16.092.064A.881.881,0,0,1,16.235,0l-.01,4.964c-.114-.086-.8-.517-.91-.421a.3.3,0,0,0-.018.421l.994.944a.294.294,0,0,0,.4.028l.948-.867a.3.3,0,0,0,.041-.419.294.294,0,0,0-.2-.107,4.321,4.321,0,0,0-.669.526h0L16.827,0a.941.941,0,0,1,.132.059l7.687,4.318a.927.927,0,0,1,.115.079Z" transform="translate(-1.951)" fill="#0d6efd"/>
    <path id="Path_16125" data-name="Path 16125" d="M66.33,38.075l4.064,2.084c-.031-.16,0-1,.161-1.034a.3.3,0,0,1,.346.233l.209,1.316a.3.3,0,0,1-.209.35l-1.219.6a.294.294,0,0,1-.364-.206c-.04-.144.595-.71.732-.768L66,38.573v8.972a.838.838,0,0,0,.137-.06l7.687-4.319a.894.894,0,0,0,.454-.779v-8.6a.891.891,0,0,0-.023-.2Z" transform="translate(-51.131 -28.625)" fill="#0d6efd"/>
  </g>
</svg>
