<svg xmlns="http://www.w3.org/2000/svg" width="17.363" height="17.372" viewBox="0 0 17.363 17.372">
  <path id="Area" d="M14.325,2H7.047C3.885,2,2,3.885,2,7.047v7.27c0,3.17,1.885,5.055,5.047,5.055h7.27c3.162,0,5.047-1.885,5.047-5.047V7.047C19.372,3.885,17.487,2,14.325,2Zm2.224,6.949a.651.651,0,0,1-1.3,0v-1.9l-8.2,8.2h1.9a.651.651,0,0,1,0,1.3H5.474a.623.623,0,0,1-.252-.052.68.68,0,0,1-.356-.356.754.754,0,0,1-.043-.243V12.423a.651.651,0,0,1,1.3,0v1.9l8.2-8.2h-1.9a.651.651,0,0,1,0-1.3H15.9a.654.654,0,0,1,.252.052.68.68,0,0,1,.356.356.754.754,0,0,1,.043.243Z" transform="translate(-2 -2)" fill="#0d6efd"/>
</svg>
