<svg xmlns="http://www.w3.org/2000/svg" width="25.392" height="25.392" viewBox="0 0 25.392 25.392">
  <g id="Custom_Layer" data-name="Custom Layer" transform="translate(-0.004 0)">
    <g id="Group_14148" data-name="Group 14148" transform="translate(0.004 0)">
      <g id="Group_14147" data-name="Group 14147" transform="translate(0 0)">
        <path id="Path_16136" data-name="Path 16136" d="M.494,9.357l11.638,7.406a1.06,1.06,0,0,0,1.136,0L24.906,9.357a1.058,1.058,0,0,0,0-1.785L13.268.165a1.06,1.06,0,0,0-1.136,0L.494,7.572a1.058,1.058,0,0,0,0,1.785Z" transform="translate(-0.004 0)" fill="#11c6ff"/>
        <path id="Path_16137" data-name="Path 16137" d="M24.91,283.376l-3.277-2.085-7.225,4.6a3.173,3.173,0,0,1-3.406,0l-7.228-4.6L.5,283.376a1.058,1.058,0,0,0,0,1.785l11.638,7.407a1.06,1.06,0,0,0,1.136,0l11.638-7.407a1.058,1.058,0,0,0,0-1.785Z" transform="translate(-0.008 -267.341)" fill="#11c6ff"/>
      </g>
    </g>
  </g>
</svg>
