<svg xmlns="http://www.w3.org/2000/svg" width="25.392" height="25.392" viewBox="0 0 25.392 25.392">
  <path id="Parent_Layer" data-name="Parent Layer" d="M15.306,1.374a3.649,3.649,0,0,0-3.22,0L1.984,6.348a1.756,1.756,0,0,0,0,3.154l10.1,4.973a3.649,3.649,0,0,0,3.22,0L25.407,9.5a1.756,1.756,0,0,0,0-3.154ZM2.042,12.09a.577.577,0,0,1,.51,0l9.533,4.694a3.649,3.649,0,0,0,3.22,0l9.533-4.694a.577.577,0,0,1,.51,0l.058.029a1.756,1.756,0,0,1,0,3.154l-10.1,4.973a3.649,3.649,0,0,1-3.22,0l-10.1-4.973a1.756,1.756,0,0,1,0-3.154Zm.51,5.771a.577.577,0,0,0-.51,0l-.058.029a1.756,1.756,0,0,0,0,3.154l10.1,4.973a3.649,3.649,0,0,0,3.22,0l10.1-4.973a1.756,1.756,0,0,0,0-3.154l-.058-.029a.577.577,0,0,0-.51,0l-9.533,4.694a3.649,3.649,0,0,1-3.22,0Z" transform="translate(-1 -1)" fill="#11c6ff" fill-rule="evenodd"/>
</svg>
