<svg xmlns="http://www.w3.org/2000/svg" width="17.784" height="18.126" viewBox="0 0 17.784 18.126">
  <g id="Volume" transform="translate(-709.407 -46.246)">
    <g id="Group_14145" data-name="Group 14145" transform="translate(709.408 41.07)">
      <g id="Group_14144" data-name="Group 14144" transform="translate(-0.001 5.93)">
        <path id="Path_16128" data-name="Path 16128" d="M441.953,112.917l-.309.309V107.9l.309.309a.347.347,0,0,0,.491-.491l-.9-.9a.347.347,0,0,0-.491,0l-.9.9a.347.347,0,1,0,.491.491l.309-.309v5.324l-.309-.309a.347.347,0,0,0-.491.491l.9.9a.347.347,0,0,0,.491,0l.9-.9a.347.347,0,0,0-.491-.491Z" transform="translate(-424.762 -103.215)" fill="#0d6efd"/>
        <path id="Path_16129" data-name="Path 16129" d="M258.995,366.606l-1.232-.33a.347.347,0,1,0-.18.671l.423.113-4.611,2.662.113-.423a.347.347,0,1,0-.671-.18l-.33,1.232a.347.347,0,0,0,.246.425l1.233.33a.347.347,0,1,0,.18-.671l-.422-.113,4.611-2.662-.113.423a.347.347,0,1,0,.671.18l.33-1.232A.347.347,0,0,0,258.995,366.606Z" transform="translate(-243.724 -353.748)" fill="#0d6efd"/>
        <path id="Path_16130" data-name="Path 16130" d="M6.415,369.119a.347.347,0,0,0-.671.18l.113.423-4.611-2.662.423-.113a.347.347,0,1,0-.18-.671l-1.233.33a.347.347,0,0,0-.246.425l.33,1.232a.347.347,0,0,0,.671-.18L.9,367.66l4.611,2.662-.423.113a.347.347,0,1,0,.18.671l1.232-.33a.347.347,0,0,0,.246-.425Z" transform="translate(0.001 -353.747)" fill="#0d6efd"/>
      </g>
    </g>
    <g id="Group_14146" data-name="Group 14146" transform="translate(703.722 43.746)">
      <path id="Path_16132" data-name="Path 16132" d="M15.468,2.56,9.189,6.528l.765.478,5.737,3.633,5.737-3.617.542-.335.223-.143L15.914,2.56a.446.446,0,0,0-.446,0Z" transform="translate(-2.186)" fill="#0d6efd"/>
      <path id="Path_16133" data-name="Path 16133" d="M6.764,32.394l-.175-.112v6.055a.4.4,0,0,0,.191.351l6.31,3.984V36.394L7.417,32.809l-.606-.382Z" transform="translate(0 -25.038)" fill="#0d6efd"/>
      <path id="Path_16134" data-name="Path 16134" d="M52.6,36.394v6.279l6.31-3.984a.4.4,0,0,0,.191-.351V32.283l-.175.112-.048.032-.606.382Z" transform="translate(-38.682 -25.038)" fill="#0d6efd"/>
    </g>
  </g>
</svg>
